<svg width="148" height="103" viewBox="0 0 148 103" fill="none" xmlns="http://www.w3.org/2000/svg">
<path d="M107.2 59.9C94.4001 56 85.5001 44.4 85.5001 30.5C85.5001 13.8 99.4001 -3.05176e-05 116.6 -3.05176e-05C133.3 -3.05176e-05 147.1 13.9 147.1 30.5C147.1 38.8 143.8 46 141 51.6L114.3 102.1H96.5001L107.2 59.9ZM21.7001 59.9C8.90013 56 6.10352e-05 44.4 6.10352e-05 30.5C6.10352e-05 13.8 13.9002 -3.05176e-05 31.1002 -3.05176e-05C47.8002 -3.05176e-05 61.6001 13.9 61.6001 30.5C61.6001 38.8 58.3001 46 55.5001 51.6L28.8001 102.1H11.0001L21.7001 59.9Z" fill="#96DADF" fill-opacity="0.5"/>
</svg>
