<?xml version="1.0" encoding="utf-8"?>
<!-- Generator: Adobe Illustrator 19.0.0, SVG Export Plug-In . SVG Version: 6.00 Build 0)  -->
<svg version="1.1" id="Quotation_Mark" xmlns="http://www.w3.org/2000/svg" xmlns:xlink="http://www.w3.org/1999/xlink" x="0px"
	 y="0px" viewBox="0 0 1400 980" style="enable-background:new 0 0 1400 980;" xml:space="preserve">
<g>
	<path d="M92.5,224.3c11.3-41.4,32.5-94.7,46.3-117.3l27.6-3c-10.8,29.1-23.7,79.9-29.1,115.4L92.5,224.3z M165.9,224.3
		c10.8-41.4,32.5-94.7,45.8-117.3l27.6-3c-10.8,29.1-23.7,79.9-29.1,115.4L165.9,224.3z"/>
</g>
<g>
	<path d="M340.5,104c-11.3,41.4-32.5,94.2-45.8,116.8l-27.6,3.5c10.4-29.1,23.7-80.4,29.1-115.9L340.5,104z M413.4,104
		c-11.3,41.4-32.5,94.2-45.8,116.8l-27.6,3.5c10.8-29.1,23.7-80.4,29.1-115.9L413.4,104z"/>
</g>
<g>
	<path d="M531,220.4V180c0-7.3,0.8-14.1,2.4-20.6c1.6-6.4,4-12.1,7.3-16.9c3.3-4.9,7.5-8.7,12.6-11.7c5.1-2.9,11-4.4,17.9-4.4v18.2
		c-4.1,0-7.5,1-10.2,3.1c-2.7,2.1-4.9,4.8-6.6,8.2c-1.7,3.4-2.9,7.2-3.5,11.5c-0.6,4.3-0.9,8.4-0.9,12.6h21.5v40.4H531z
		 M597.7,220.4V180c0-7.3,0.8-14.1,2.4-20.6c1.6-6.4,4-12.1,7.3-16.9c3.3-4.9,7.5-8.7,12.6-11.7c5.1-2.9,11-4.4,17.9-4.4v18.2
		c-4.1,0-7.5,1-10.2,3.1c-2.7,2.1-4.9,4.8-6.6,8.2c-1.7,3.4-2.9,7.2-3.5,11.5c-0.6,4.3-0.9,8.4-0.9,12.6h21.5v40.4H597.7z"/>
</g>
<g>
	<path d="M726.7,126.4v40.4c0,7.3-0.8,14.2-2.4,20.6c-1.6,6.4-4,12.1-7.3,16.9c-3.3,4.9-7.4,8.7-12.4,11.7c-5,2.9-11,4.4-18,4.4
		v-18.2c4.1,0,7.5-1,10.2-3.1c2.7-2.1,4.9-4.8,6.6-8.2c1.7-3.4,2.9-7.2,3.5-11.5c0.6-4.2,0.9-8.4,0.9-12.6h-21.5v-40.4H726.7z
		 M793.3,126.4v40.4c0,7.3-0.8,14.2-2.4,20.6c-1.6,6.4-4,12.1-7.3,16.9c-3.3,4.9-7.4,8.7-12.4,11.7c-5,2.9-11,4.4-18,4.4v-18.2
		c4.1,0,7.5-1,10.2-3.1c2.7-2.1,4.9-4.8,6.6-8.2c1.7-3.4,2.9-7.2,3.5-11.5c0.6-4.2,0.9-8.4,0.9-12.6h-21.5v-40.4H793.3z"/>
</g>
<g>
	<path d="M969.6,146.2c12.8,3.9,21.7,15.5,21.7,29.4c0,16.7-13.9,30.5-31.1,30.5c-16.7,0-30.5-13.9-30.5-30.5
		c0-8.3,3.3-15.5,6.1-21.1l26.7-50.5h17.8L969.6,146.2z M1055.1,146.2c12.8,3.9,21.7,15.5,21.7,29.4c0,16.7-13.9,30.5-31.1,30.5
		c-16.7,0-30.5-13.9-30.5-30.5c0-8.3,3.3-15.5,6.1-21.1l26.7-50.5h17.8L1055.1,146.2z"/>
</g>
<g>
	<path d="M1171.7,161.2c-12.8-3.9-21.7-15.5-21.7-29.4c0-16.7,13.9-30.5,31.1-30.5c16.7,0,30.5,13.9,30.5,30.5
		c0,8.3-3.3,15.5-6.1,21.1l-26.7,50.5h-17.8L1171.7,161.2z M1257.2,161.2c-12.8-3.9-21.7-15.5-21.7-29.4c0-16.7,13.9-30.5,31.1-30.5
		c16.7,0,30.5,13.9,30.5,30.5c0,8.3-3.3,15.5-6.1,21.1l-26.7,50.5h-17.8L1257.2,161.2z"/>
</g>
<g>
	<path d="M87.2,508.5h-5.8c-2.9,0-5-0.9-6.3-2.7c-1.2-1.8-1.9-5.1-1.9-9.8V461l33.5-50.2h20l-28.8,51.5h19.3c2.9,0,5,0.8,6.3,2.5
		c1.2,1.7,1.9,5,1.9,10v21c0,5.2-0.6,8.6-1.9,10.2c-1.2,1.6-5.3,2.4-12,2.4H87.2z M171.3,508.5h-5.8c-3.2,0-5.4-0.9-6.6-2.7
		c-1.2-1.8-1.9-5.1-1.9-9.8V461l33.5-50.2h20.3l-28.8,51.5h19.3c2.9,0,5,0.8,6.3,2.5c1.2,1.7,1.9,5,1.9,10v21c0,5.2-0.7,8.6-2,10.2
		c-1.4,1.6-5.4,2.4-12.2,2.4H171.3z"/>
</g>
<g>
	<path d="M307.5,410.9h5.8c2.9,0,5,0.9,6.3,2.7c1.2,1.8,1.9,5.1,1.9,9.8v34.9l-33.5,50.2h-20l28.8-51.5h-19.3c-2.9,0-5-0.9-6.3-2.7
		c-1.2-1.8-1.9-5.1-1.9-9.8v-21c0-5.2,0.6-8.6,1.9-10.2c1.2-1.6,5.3-2.4,12-2.4H307.5z M391.2,410.9h6.1c2.9,0,5,0.9,6.3,2.7
		c1.2,1.8,1.9,5.1,1.9,9.8v34.9l-33.5,50.2h-20.3l28.8-51.5h-19c-3.2,0-5.4-0.9-6.6-2.7c-1.2-1.8-1.9-5.1-1.9-9.8v-21
		c0-5.2,0.7-8.6,2-10.2c1.4-1.6,5.4-2.4,12.2-2.4H391.2z"/>
</g>
<g>
	<path d="M563.5,425.4v9.1c-22.6,4.4-34,17.1-34,38c0,7.4,2.2,11,6.7,11c0.9,0,2.1-0.2,3.5-0.5c2.7-0.8,5-1.2,7-1.2
		c5.7,0,10.3,1.8,13.7,5.4c3.4,3.6,5.1,7.7,5.1,12.3c0,4.6-1.7,8.6-5.2,12.2c-3.4,3.6-7.9,5.3-13.4,5.3c-7.5,0-14-3.5-19.5-10.5
		c-5.5-7-8.3-16.3-8.3-28c0-13.5,3.9-25.1,11.6-34.6C538.4,434.4,549.4,428.2,563.5,425.4z M642.8,425.4v9.1
		c-22.6,4.4-34,17.1-34,38c0,7.4,2.2,11,6.5,11c0.9,0,2.1-0.2,3.5-0.5c2.8-0.8,5.1-1.2,7-1.2c5.7,0,10.3,1.8,13.7,5.4
		c3.4,3.6,5.1,7.7,5.1,12.3c0,4.6-1.7,8.6-5.2,12.2c-3.4,3.6-7.9,5.3-13.4,5.3c-7.6,0-14.1-3.5-19.6-10.6
		c-5.5-7.1-8.2-16.4-8.2-27.9c0-13.5,3.9-25.1,11.7-34.6C617.7,434.4,628.7,428.2,642.8,425.4z"/>
</g>
<g>
	<path d="M679.9,518.6v-9.3c22.6-4.4,34-17.1,34-38c0-7.4-2.2-11-6.5-11c-0.9,0-2.1,0.2-3.5,0.5c-2.7,0.8-5,1.2-7,1.2
		c-5.7,0-10.3-1.8-13.7-5.4c-3.4-3.6-5.1-7.7-5.1-12.3c0-4.6,1.7-8.6,5.2-12.2c3.4-3.6,7.9-5.3,13.4-5.3c7.5,0,14,3.5,19.5,10.5
		c5.5,7,8.3,16.4,8.3,28.2c0,13.5-3.9,25.1-11.6,34.6C705.1,509.6,694.1,515.8,679.9,518.6z M759.2,518.6v-9.3
		c22.6-4.4,34-17.1,34-38c0-7.4-2.2-11-6.7-11c-0.8,0-2,0.2-3.5,0.5c-2.7,0.8-5,1.2-7,1.2c-5.6,0-10.1-1.8-13.6-5.4
		c-3.4-3.6-5.2-7.7-5.2-12.3c0-4.3,1.7-8.3,5-12c3.3-3.7,7.8-5.5,13.6-5.5c7.5,0,14,3.5,19.5,10.5c5.5,7,8.3,16.4,8.3,28.2
		c0,13.5-3.9,25.1-11.6,34.6C784.2,509.6,773.3,515.8,759.2,518.6z"/>
</g>
<g>
	<path d="M1018.1,439.5c-4.2,0-7.9,0.3-11,0.9c-3.1,0.6-5.6,1.6-7.5,3.1c-1.9,1.5-3.4,2.9-4.6,4.4c-1.1,1.5-1.9,3.7-2.5,6.5
		c-0.5,2.8-0.8,5.3-0.9,7.4c-0.1,2.1-0.1,5.1-0.1,9.1h26.6v51.5h-71.7c-2.2-14.4-3.4-27.4-3.4-39c0-26.1,6.1-45.2,18.3-57.3
		c12.2-12.1,31.1-18.2,56.8-18.2V439.5z M1106.8,439.5c-4.2,0-7.9,0.3-11,0.9c-3.1,0.6-5.6,1.6-7.5,3.1c-1.9,1.5-3.4,2.9-4.6,4.4
		c-1.1,1.5-1.9,3.7-2.5,6.5c-0.5,2.8-0.8,5.3-0.9,7.4c-0.1,2.1-0.1,5.1-0.1,9.1h26.6v51.5h-71.7c-2.2-14.4-3.4-27.4-3.4-39
		c0-26.1,6.1-45.2,18.3-57.3c12.2-12.1,31.1-18.2,56.8-18.2V439.5z"/>
</g>
<g>
	<path d="M1130.6,494.9c4.2,0,7.9-0.3,11-0.9c3.1-0.6,5.6-1.6,7.5-3.1c1.9-1.5,3.4-2.9,4.6-4.4c1.1-1.5,1.9-3.7,2.5-6.5
		c0.5-2.8,0.8-5.3,0.9-7.4c0.1-2.1,0.1-5.1,0.1-9.1h-26.6v-51.5h71.7c2.2,14.5,3.4,27.5,3.4,39c0,26.1-6.1,45.2-18.3,57.3
		c-12.2,12.1-31.1,18.2-56.8,18.2V494.9z M1222.1,494.9c4.2,0,7.9-0.3,11-0.9c3.1-0.6,5.6-1.6,7.5-3.1c1.9-1.5,3.4-2.9,4.6-4.4
		c1.1-1.5,1.9-3.7,2.5-6.5c0.5-2.8,0.8-5.3,0.9-7.4c0.1-2.1,0.1-5.1,0.1-9.1h-26.6v-51.5h71.7c2.2,14.5,3.4,27.5,3.4,39
		c0,26.1-6.1,45.2-18.3,57.3c-12.2,12.1-31.1,18.2-56.8,18.2V494.9z"/>
</g>
<g>
	<path d="M160.6,787.9h-31.7v31.6l-31.4-31.6v-63.1h63.1V787.9z M255.5,787.9H224v31.6l-31.5-31.6v-63.1h63.1V787.9z"/>
</g>
<g>
	<path d="M341.6,788l-31.7,31.6v-31.6h-31.4v-63.1h63.1V788z M436.5,788L405,819.6v-31.6h-31.5v-63.1h63.1V788z"/>
</g>
<g>
	<path d="M591.5,788.3v31.5l-47-36.2v-39.8h61.7v44.5H591.5z M584.4,783h14.7v-33.7h-47.3v31.9l32.6,25.5V783z M576.1,791.2
		L560,778.7v-22.9h30.8v20.8h-14.7V791.2z M662.9,788.3v30.5l-47-35.1v-39.8h61.3v44.5H662.9z M655.7,783h14.7v-33.7h-47.7v32.3
		l33,24.7V783z M647.5,791.2L631,778.7v-22.9h31.2v20.8h-14.7V791.2z"/>
</g>
<g>
	<path d="M695.2,743.9h61.7v39.8l-47,36.2v-31.5h-14.7V743.9z M702.3,783H717v23.7l32.6-25.5v-31.9h-47.3V783z M710.6,755.7h30.8
		v22.9l-16.1,12.5v-14.7h-14.7V755.7z M766.5,743.9h61.3v39.8l-46.6,36.2v-31.5h-14.7V743.9z M773.3,783H788v23.7l33-25.5v-31.9
		h-47.7V783z M781.5,755.7h31.2v22.9l-16.1,12.5v-14.7h-15.1V755.7z"/>
</g>
<g>
	<path d="M952.1,776.1c0-23.4,13.7-42.8,41.1-58.4l4.2,7c-10.6,5.9-19.4,13.4-26.4,22.4c-7,9-10.5,18.4-10.5,28
		c0,9.7,2.7,17.3,8.2,22.9c5.4,5.6,11.8,8.4,18.9,8.4c3.1,0,4.7-1.3,4.7-4c0-2.6-1.4-4.1-4.2-4.4c-8.1-1.9-12.2-7.8-12.2-17.8
		c0-6.5,2.4-11.9,7.2-16.1c4.8-4.2,10.8-6.3,17.8-6.3s12.9,2.6,17.8,7.7c4.8,5.1,7.2,11.8,7.2,19.9c0,8.1-3.2,15.1-9.6,21
		c-6.4,5.9-14.9,8.9-25.5,8.9c-10.6,0-19.7-3.6-27.3-10.8C955.9,797.5,952.1,788,952.1,776.1z M1038.6,776.1
		c0-23.4,13.7-42.8,41.1-58.4l4.2,7c-10.6,5.9-19.4,13.4-26.4,22.4c-7,9-10.5,18.4-10.5,28c0,9.7,2.7,17.3,8.2,22.9
		c5.4,5.6,11.8,8.4,18.9,8.4c3.1,0,4.7-1.3,4.7-4c0-2.6-1.4-4.1-4.2-4.4c-8.1-1.9-12.2-7.8-12.2-17.8c0-6.5,2.4-11.9,7.2-16.1
		c4.8-4.2,10.8-6.3,17.8-6.3c7,0,12.9,2.6,17.8,7.7c4.8,5.1,7.2,11.8,7.2,19.9c0,8.1-3.2,15.1-9.6,21c-6.4,5.9-14.9,8.9-25.5,8.9
		c-10.6,0-19.7-3.6-27.3-10.8C1042.4,797.5,1038.6,788,1038.6,776.1z"/>
</g>
<g>
	<path d="M1209.7,757c0,23.4-13.7,42.8-41.1,58.4l-4.2-7c10.6-5.9,19.4-13.4,26.4-22.4c7-9,10.5-18.4,10.5-28
		c0-9.7-2.7-17.3-8.2-22.9c-5.5-5.6-11.8-8.4-18.9-8.4c-3.1,0-4.7,1.2-4.7,3.7c0,2.5,1.4,4.1,4.2,4.7c8.1,1.9,12.2,7.8,12.2,17.8
		c0,6.5-2.4,11.9-7.2,16.1c-4.8,4.2-10.8,6.3-17.8,6.3c-7,0-12.9-2.6-17.8-7.7c-4.8-5.1-7.2-11.8-7.2-19.9c0-8.1,3.2-15.1,9.6-21
		c6.4-5.9,14.9-8.9,25.5-8.9c10.6,0,19.7,3.6,27.3,10.8C1205.8,735.6,1209.7,745.1,1209.7,757z M1296.1,757
		c0,23.4-13.7,42.8-41.1,58.4l-4.2-7c10.6-5.9,19.4-13.4,26.4-22.4c7-9,10.5-18.4,10.5-28c0-9.7-2.7-17.3-8.2-22.9
		c-5.5-5.6-11.8-8.4-18.9-8.4c-3.1,0-4.7,1.2-4.7,3.7c0,2.5,1.4,4.1,4.2,4.7c8.1,1.9,12.2,7.8,12.2,17.8c0,6.5-2.4,11.9-7.2,16.1
		c-4.8,4.2-10.8,6.3-17.8,6.3c-7,0-12.9-2.6-17.8-7.7c-4.8-5.1-7.2-11.8-7.2-19.9c0-8.1,3.2-15.1,9.6-21c6.4-5.9,14.9-8.9,25.5-8.9
		c10.6,0,19.7,3.6,27.3,10.8C1292.3,735.6,1296.1,745.1,1296.1,757z"/>
</g>
</svg>
