<svg width="1440" height="120" viewBox="0 0 1440 120" fill="none" xmlns="http://www.w3.org/2000/svg">
<g clip-path="url(#clip0_1_10)">
<path opacity="0.25" d="M0 0V46.29C57.348 68.49 124.308 78.46 189.6 74.29C274.032 68.92 353.196 40.98 437.76 36.79C526.368 32.43 614.808 53.67 699.6 72.05C782.724 90.05 865.56 96.93 950.88 85.13C994.26 79.13 1034.7 67.29 1076.22 55.79C1187.39 25 1335.6 -14.29 1440 52.47V0H0Z" fill="#96DADF"/>
<path opacity="0.5" d="M0 0V15.81C15.6 36.92 33.168 56.86 57.228 72.05C119.292 111.27 198 111 269.496 91.58C306.876 81.43 341.604 65.51 377.1 51.78C426.204 32.78 478.776 5.78 534.096 2.11C577.608 -0.74 619.176 11.53 652.416 33.67C690.54 59.06 727.2 95.67 776.772 106.67C825.3 117.46 874.392 99.98 919.728 82.39C965.064 64.8 1009.92 43.39 1060.03 39.34C1131.71 33.49 1195.97 62.22 1262.71 78.18C1298.95 86.84 1333.51 84.35 1367.22 70.68C1394.14 59.79 1424.82 43.75 1440 21.44V0H0Z" fill="#96DADF"/>
<path d="M62 0V7.36968C241.916 77.2311 438.908 93.358 632.996 55.7242C684.596 45.7234 734.072 29.3871 786.128 21.088C856.928 9.79134 921.104 37.1102 984.8 67.4267C1055.52 101.081 1125.2 124.669 1203.44 117.81C1307.28 108.647 1410.39 57.9757 1502 6.79372V0H62Z" fill="#96DADF"/>
</g>
<defs>
<clipPath id="clip0_1_10">
<rect width="1440" height="120" fill="white"/>
</clipPath>
</defs>
</svg>
